<?xml version="1.0" encoding="UTF-8"?>
<svg version="1.1" viewBox="0 0 120 121" xmlns="http://www.w3.org/2000/svg" xmlns:xlink="http://www.w3.org/1999/xlink">
<title>Group 17</title>
<desc>Created with Sketch.</desc>
<defs>
<polygon id="c" points="0.31523 0.48186 99.855 0.48186 99.855 121 0.31523 121"/>
<polygon id="b" points="0 122 120 122 120 1 0 1"/>
</defs>
<g fill="none" fill-rule="evenodd">
<g transform="translate(20)">
<mask id="d" fill="white">
<use xlink:href="#c"/>
</mask>
<path d="m78.331 66.104c-0.27835-0.061124-0.55669-0.12225-0.83504-0.18275-0.081132 0.61436-0.16226 1.2287-0.2434 1.8431 0.22031 0.037423 0.44061 0.075469 0.66154 0.11352 0.13917-0.59128 0.27772-1.1826 0.41689-1.7738m-2.0208-5.8872c-0.41377 0.68733-0.81507 1.0622-0.81881 1.4408-0.0037446 0.38358 0.38569 0.77091 0.60225 1.1564 0.35823-0.38046 0.87186-0.71165 1.016-1.1607 0.088621-0.27693-0.38631-0.73473-0.79946-1.4364m-1.2214 9.4349l-0.9505 0.5077v4.5375c0.26898 0.11975 0.53797 0.23888 0.80633 0.35863 0.6166-0.89565 1.6857-1.7751 1.7188-2.6913 0.031205-0.88442-1.0067-1.8069-1.5746-2.7125m-31.288-22.264c0.43999-2.7924 0.64594-5.1911 1.2551-7.482 0.28084-1.0553 1.2756-2.6371 2.0764-2.7194 4.3599-0.44845 8.7804-0.85511 13.14-0.5944 4.2626 0.25447 5.4502-0.57756 4.725-4.7103-0.43125-2.4549-0.99855-4.9036-1.192-7.3791-0.42438-5.445-3.7184-8.6796-8.3111-10.672-14.029-6.0868-27.576-4.5225-40.572 3.108-5.658 3.3219-9.1361 8.5068-8.2786 14.938 0.84627 6.3494-1.69 12.144-1.3187 18.396 0.44061 7.4259-1.8754 15.111 3.3008 21.836 0.55981 0.72662 0.53422 1.9871 0.58478 3.0094 0.49803 9.9669 5.2143 17.764 12.519 24.176 0.93864 0.82392 2.3354 1.3123 3.596 1.5474 3.0256 0.56508 6.0912 0.92684 9.1492 1.2998 6.7658 0.82517 13.514 1.5343 18.712-4.3891 0.86812-0.98921 1.7718-1.9747 2.7947-2.793 0.88933-0.71228 1.9915-1.7083 2.9613-1.6678 3.0393 0.12661 4.7319-1.6454 5.8353-3.9132 2.258-4.6404 4.5103-9.2902 4.2345-14.745-0.26774-5.2822-1.0603-10.781 0.044311-15.82 1.1209-5.1107-0.58415-8.7781-2.897-12.664-0.7252-1.2181-1.5927-2.3944-2.5856-3.4023-3.8195-3.877-8.3267-3.1229-13.078-2.1499-3.767 0.77153-4.4055 3.6007-5.4502 6.3743-0.022467 0.059876-0.18411 0.067361-1.2444 0.41664m34.366-0.90002c0 0.94617-0.078012 2.1705 0.019971 3.3805 0.11795 1.4489-0.14292 3.4872 0.68713 4.215 2.4483 2.1474 2.4096 4.5905 2.0383 7.3729-0.43062 3.2246-0.67402 6.4741-0.99793 9.7131-1.3374 1.5736-2.3809 3.91-4.0735 4.56-3.3795 1.2979-3.802 3.9169-4.4298 6.7124-0.27148 1.2081-0.88871 2.3589-1.0291 3.5726-0.5361 4.641-0.94176 9.2964-1.3992 13.981 4.7612 0.22516 8.5757 0.28192 12.366 0.61311 6.5549 0.57257 7.2464 1.2742 8.8103 7.7989 0.13543 0.56508 0.47182 1.0821 0.38319 0.88567 3.5024 0.64991 6.4076 1.1888 9.3127 1.7283v9.9794h-34.325c1.0035-0.53951 2.3067-0.8495 2.9389-1.6734 0.91055-1.1875 1.9965-2.826 1.843-4.1358-0.47556-4.066-1.4878-8.0708-2.3241-12.093-0.17662-0.85137-0.49054-1.674-0.90618-3.0606-1.3743 1.0934-2.3953 1.7476-3.221 2.5928-2.7585 2.8235-5.3853 5.7768-8.1769 8.5661-3.4818 3.4791-7.1783 5.73-12.486 3.3337-2.9607-1.3366-6.4875-1.3616-9.5873-2.4612-4.0972-1.4532-8.8815-1.4757-11.822-5.5604-4.2089-5.8467-8.7286-11.285-11.594-18.209-3.5386-8.5517-2.1681-18.656-7.1228-26.274-2.736-4.2063-2.7572-37.94-2.7572-37.94 2.9694-3.2583 5.7392-6.7049 8.4889-10.155 4.7319-5.939 11.527-8.891 17.844-12.639-0.094862-0.45593-0.21656-1.0422-0.14853-0.71602 2.9139 0 5.713-0.048649 8.5095 0.010603 4.5041 0.096052 8.9639-0.35177 13.293 2.0021 4.315 2.3458 9.1024 3.8134 13.643 5.7594 1.0104 0.43286 2.0957 1.0722 2.7348 1.9248 3.7602 5.0146 7.3986 10.121 11.144 15.288" fill="#000" mask="url(#d)"/>
</g>
<mask id="a" fill="white">
<use xlink:href="#b"/>
</mask>
<path d="m0 120c0.44221-0.24833 0.85456-0.60534 1.3304-0.72799 2.6831-0.69095 4.5564-1.98 6.051-4.5501 1.9934-3.4287 4.8388-6.408 7.5045-9.4226 0.5722-0.64724 2.2048-1.1469 2.897-0.81482 2.7839 1.3345 4.2007-0.10808 5.1056-2.2046 1.5536-3.6017 4.7399-4.7608 9.0108-6.2799 0 3.0595-0.046646 5.5956 0.0087073 8.1293 0.15362 7.003 1.8428 9.1955 8.5462 11.644 3.5569 1.2999 7.033 2.8112 10.546 4.2265h-51z" fill="#000" mask="url(#a)"/>
<path d="m30.015 45c-0.26751-4.7783 3.135-8.5249 8.4718-9.1635 3.0872-0.36971 6.2005-0.49908 9.2955-0.80854 1.9536-0.19468 3.3638 0.61893 3.2058 2.652-0.055075 0.71088-1.7678 1.6386-2.8239 1.8175-1.4495 0.24415-3.0346 0.063415-4.4901-0.27395-5.0802-1.1763-9.074 0.56122-12.284 4.6749-0.25359 0.32468-0.53622 0.63034-0.83944 0.90303-0.13436 0.12049-0.35345 0.13824-0.53562 0.19849" fill="#000" mask="url(#a)"/>
<path d="m62.296 74c4.4826 0.34276 8.9658 0.68552 13.448 1.0277 0.085041 0.34974 0.17008 0.69893 0.25512 1.0487-1.4904 0.84966-2.8548 2.0914-4.4952 2.4723-4.2678 0.9902-14.378 0.21617-16.505-1.0202 2.6369 0 5.1421 0.064368 7.6398-0.023065 1.6693-0.057932 3.3393-0.28429 4.9834-0.54928 0.33638-0.054177 0.86993-0.80353 0.78048-0.91081-0.32504-0.38997-0.85356-0.87166-1.3455-0.90599-1.6107-0.11157-3.2385-0.04184-4.8599-0.04184 0.032756-0.36583 0.065513-0.73165 0.098269-1.0975" fill="#000" mask="url(#a)"/>
<path d="m82.961 50c-4.512-0.92245-8.7299-3.8311-13.961-2.8471 0.72472-0.61497 1.413-1.6969 2.1806-1.7631 3.3117-0.28586 6.6874-0.61294 9.9519-0.18044 1.0909 0.14462 1.9192 2.5079 2.8676 3.8567-0.34638 0.31154-0.69277 0.6224-1.0392 0.93394" fill="#000" mask="url(#a)"/>
<path d="m51 45.851c-2.4825 0.27748-4.7236 0.41705-6.9012 0.80827-1.6044 0.28847-3.093 1.0325-4.6974 1.3193-0.71911 0.12913-1.5959-0.36375-2.4014-0.5742 0.49598-0.70113 0.81856-1.8297 1.5187-2.0303 3.2271-0.92586 6.5178-1.7786 9.8646-2.3001 3.2147-0.50057 2.3876 1.6561 2.6167 2.777" fill="#000" mask="url(#a)"/>
<path d="m67.535 62.766c0.41728-1.8528 0.20895-3.18-2.0224-3.7563-0.72754-0.18788-1.2252-1.2595-1.828-1.9268 0.4464-0.3612 0.89344-0.72241 1.3398-1.083 1.3582 1.6637 3.1432 3.1585 3.9011 5.0607 0.40018 1.0033-0.90547 2.7644-1.6191 4.0877-0.24251 0.44977-1.0517 0.89004-1.5627 0.84893-2.2713-0.18345-4.5286-0.54402-6.7435-0.83374 1.4848-2.5006 2.9114-2.9276 8.5349-2.3975" fill="#000" mask="url(#a)"/>
<path d="m45.101 76.118c2.525-0.67657 5.0501-1.3538 7.8989-2.1177-1.1957 1.7495-2.1171 3.0977-3.4169 5-1.1122-0.48719-2.8476-1.2468-4.5831-2.0065 0.033893-0.29147 0.067158-0.58364 0.10105-0.87581" fill="#000" mask="url(#a)"/>
<path d="m60 64.211c-1.2716 0.59647-2.544 1.1924-3.8156 1.7888-0.39481-0.34706-0.78961-0.69471-1.1844-1.0418l3.5604-1.9582c0.48017 0.40353 0.95945 0.80765 1.4396 1.2112" fill="#000" mask="url(#a)"/>
</g>
</svg>
